<?xml version="1.0" encoding="UTF-8" standalone="no"?>
<!-- Created with Inkscape (http://www.inkscape.org/) -->
<svg
   xmlns:dc="http://purl.org/dc/elements/1.1/"
   xmlns:cc="http://web.resource.org/cc/"
   xmlns:rdf="http://www.w3.org/1999/02/22-rdf-syntax-ns#"
   xmlns:svg="http://www.w3.org/2000/svg"
   xmlns="http://www.w3.org/2000/svg"
   xmlns:sodipodi="http://sodipodi.sourceforge.net/DTD/sodipodi-0.dtd"
   xmlns:inkscape="http://www.inkscape.org/namespaces/inkscape"
   width="327"
   height="217"
   id="svg2"
   sodipodi:version="0.32"
   inkscape:version="0.45.1"
   version="1.0"
   sodipodi:docbase="/home/sfish/Desktop"
   sodipodi:docname="Bandera_Buenos_Aires.svg"
   inkscape:output_extension="org.inkscape.output.svg.inkscape">
  <defs
     id="defs4" />
  <sodipodi:namedview
     id="base"
     pagecolor="#ffffff"
     bordercolor="#666666"
     borderopacity="1.0"
     inkscape:pageopacity="0.0"
     inkscape:pageshadow="2"
     inkscape:zoom="1"
     inkscape:cx="75.495888"
     inkscape:cy="110.10102"
     inkscape:document-units="px"
     inkscape:current-layer="layer1"
     inkscape:window-width="872"
     inkscape:window-height="594"
     inkscape:window-x="50"
     inkscape:window-y="62" />
  <metadata
     id="metadata7">
    <rdf:RDF>
      <cc:Work
         rdf:about="">
        <dc:format>image/svg+xml</dc:format>
        <dc:type
           rdf:resource="http://purl.org/dc/dcmitype/StillImage" />
      </cc:Work>
    </rdf:RDF>
  </metadata>
  <g
     inkscape:label="Capa 1"
     inkscape:groupmode="layer"
     id="layer1"
     transform="translate(-105.07142,-278.14789)">
    <g
       id="g14797">
      <rect
         y="278.13614"
         x="105.05968"
         height="216.7735"
         width="327.2735"
         id="rect2170"
         style="opacity:1;fill:#3100ce;fill-opacity:1;fill-rule:evenodd;stroke:none;stroke-width:0.97651899;stroke-linecap:round;stroke-linejoin:round;stroke-miterlimit:4;stroke-dasharray:none;stroke-opacity:1" />
      <rect
         style="opacity:1;fill:#ff0000;fill-opacity:1;fill-rule:evenodd;stroke:none;stroke-width:1;stroke-linecap:round;stroke-linejoin:round;stroke-miterlimit:4;stroke-dasharray:none;stroke-opacity:1"
         id="rect5083"
         width="99.25"
         height="5.25"
         x="332.82141"
         y="384.14789" />
      <rect
         transform="translate(105.07142,278.14789)"
         y="105"
         x="0"
         height="5.25"
         width="96.25"
         id="rect5081"
         style="opacity:1;fill:#ff0000;fill-opacity:1;fill-rule:evenodd;stroke:none;stroke-width:1;stroke-linecap:round;stroke-linejoin:round;stroke-miterlimit:4;stroke-dasharray:none;stroke-opacity:1" />
      <path
         sodipodi:nodetypes="cccccccccccccccccccccccccccccc"
         transform="translate(105.07142,278.14789)"
         id="path5085"
         d="M -0.29289294,109.78754 L 95.855862,110.33043 L 75.306872,115.17662 L 86.017027,138.26115 L 100.61627,127.69744 L 109.248,139.92536 L 92.630988,150.23907 L 109.9551,168.56319 L 122.68303,152.79973 L 134.66095,159.26724 L 125.1579,182.35177 L 152.73506,189.77639 L 154.50283,163.9241 L 175.00893,163.77765 L 177.13025,188.71573 L 205.51807,182.24821 L 191.97949,158.6208 L 203.37899,152.90328 L 219.91021,173.15938 L 236.17367,150.88552 L 213.19269,138.15759 L 219.91021,127.19744 L 240.4592,140.17536 L 251.25514,117.21216 L 228.54194,114.11596 L 228.49904,110.39109 L 327.74399,110.93398 L 327.59755,217.31066 L -1.1706594e-07,216.64644 L -0.29289294,109.78754 z "
         style="opacity:1;fill:#009c00;fill-opacity:1;fill-rule:evenodd;stroke:none;stroke-width:1;stroke-linecap:round;stroke-linejoin:round;stroke-miterlimit:4;stroke-dasharray:none;stroke-opacity:1" />
      <path
         sodipodi:nodetypes="ccccccccccccccccccccccccccccccccc"
         transform="translate(105.07142,278.14789)"
         id="path7033"
         d="M 128.5,117.5 L 118.5,145.25 L 145.75,133.5 L 163.5,157.25 L 177,133.25 L 206.75,143 L 191.5,117.5 L 226.5,107 C 217.66667,107.66667 213.08333,103.08333 196.75,102 C 212.66667,101.66667 217.83333,101.83333 220.5,96.75 C 198.66667,100 207.33333,92.75 189.75,95 C 195.75,89.166667 197.75,96.583333 206,84.75 C 196.91667,88.083333 197.58333,83.666667 186.25,87.75 C 191.46831,80.995347 196.6226,87.822888 202,71 C 195.25,80.583333 189.75,76.416667 180.25,83 C 179.91667,78.333333 186.58333,74.916667 185.25,69.5 C 180,76.583333 175.25,72.916667 171,79 C 169.25,72.75 181.5,73.25 177,58 C 171.83333,74.583333 163.66667,65.916667 161.5,75.5 C 159.41667,69.583333 157.58333,66.666667 158.25,62.25 C 154,65.666667 153,71.833333 153.5,77.25 C 147.25,70.25 144.25,70.5 142.25,58.5 C 138.75,63.333333 135.5,65.916667 146.5,80.25 C 141,73.25 137.75,78.5 133,68.25 C 131.16667,73.75 134.58333,78.25 139.25,83.25 C 129.33333,77.833333 129.66667,83.916667 118.25,72.5 C 120.08333,88 129.16667,81.5 133.75,90.25 C 125.16667,85.75 123.83333,89.5 116.25,82.5 C 116.16667,88.25 119.33333,91.5 128,94.75 C 119.83333,94.583333 111.66667,96.166667 103.5,93.25 C 112,102.08333 115.75,96.416667 125.25,101.25 C 117.66667,100.75 109.58333,105.75 97,106.25 L 128.5,117.5 z "
         style="opacity:1;fill:#ffce00;fill-opacity:1;fill-rule:evenodd;stroke:#ffc100;stroke-width:1;stroke-linecap:round;stroke-linejoin:round;stroke-miterlimit:4;stroke-dasharray:none;stroke-opacity:1" />
      <path
         sodipodi:end="3.117728"
         sodipodi:start="0"
         transform="matrix(1,0,0,0.9509202,99.768119,290.48788)"
         d="M 194.80792,100.1506 A 28.814602,28.814602 0 0 1 137.18692,100.83818 L 165.99332,100.1506 z"
         sodipodi:ry="28.814602"
         sodipodi:rx="28.814602"
         sodipodi:cy="100.1506"
         sodipodi:cx="165.99332"
         id="path6062"
         style="opacity:1;fill:#ff0000;fill-opacity:1;fill-rule:evenodd;stroke:none;stroke-width:1;stroke-linecap:round;stroke-linejoin:round;stroke-miterlimit:4;stroke-dasharray:none;stroke-opacity:1"
         sodipodi:type="arc" />
      <path
         sodipodi:nodetypes="ccccccccccccccccccccccccccccc"
         transform="translate(105.07142,278.14789)"
         id="path6056"
         d="M 85.75,105.25 C 87.25,105.25 88.75,105.25 90.25,105.25 C 89.833333,100.45833 89.541667,95.666667 90.5,91.25 C 100.45833,94.125 104.54167,88 106.875,81.625 C 100.875,79.75 99.125,79.625 91.25,85 C 91.833333,81.083333 93.041667,77.041667 94.75,74.25 C 102.45833,85.583333 118.54167,71.041667 118.125,65.875 C 111.08333,63.958333 104.41667,66.291667 97.5,69.5 C 101.29167,62.875 105.08333,58 110,53.75 C 118.75,60.125 129.25,59.875 135.875,51.25 C 131.04167,46.541667 121.83333,48.333333 115.75,49.75 C 120.66667,44.125 126.08333,41.875 132,41.5 C 141.16667,45.291667 152.83333,44.833333 159.5,40.5 C 158.66667,35.333333 143.45833,36.916667 139.5,37.625 C 143.04167,35.5 145.95833,35.375 147.75,34 C 147.83333,32.791667 147.54167,32.958333 147.125,32.625 C 144.95833,32.708333 141.29167,32.666667 138.5,34 C 140.5,29.25 144.5,24.25 144.5,19.75 C 133.45833,20 125.66667,25.25 130.5,37.75 C 125.875,38.75 121.375,41.625 117,44.5 C 119.29167,39.541667 120.83333,34.583333 119,30 C 109.54167,33.25 100.95833,40.625 108.125,51.625 C 103.33333,54.791667 99.66667,57.208333 96.5,63.5 C 95.958333,55.75 94.166667,51.125 90.75,47 C 82.916667,52.75 79.208333,66.875 90.5,71.75 C 89.375,75.291667 88,78.958333 88.125,82.75 C 86.041667,78 84.083333,73 81.25,70.75 C 74.916667,75.291667 78.333333,85.833333 85.5,91.5 C 85.583333,96.083333 85.666667,100.66667 85.75,105.25 z "
         style="opacity:1;fill:#009c00;fill-opacity:1;fill-rule:evenodd;stroke:none;stroke-width:1;stroke-linecap:round;stroke-linejoin:round;stroke-miterlimit:4;stroke-dasharray:none;stroke-opacity:1" />
      <path
         style="opacity:1;fill:#009c00;fill-opacity:1;fill-rule:evenodd;stroke:none;stroke-width:1;stroke-linecap:round;stroke-linejoin:round;stroke-miterlimit:4;stroke-dasharray:none;stroke-opacity:1"
         d="M 344.42271,383.75144 C 342.92271,383.75144 341.42271,383.75144 339.92271,383.75144 C 340.33937,378.95977 340.63104,374.16811 339.67271,369.75144 C 329.71438,372.62644 325.63104,366.50144 323.29771,360.12644 C 329.29771,358.25144 331.04771,358.12644 338.92271,363.50144 C 338.33937,359.58477 337.13104,355.54311 335.42271,352.75144 C 327.71438,364.08477 311.63104,349.54311 312.04771,344.37644 C 319.08938,342.45977 325.75604,344.79311 332.67271,348.00144 C 328.88104,341.37644 325.08938,336.50144 320.17271,332.25144 C 311.42271,338.62644 300.92271,338.37644 294.29771,329.75144 C 299.13104,325.04311 308.33938,326.83477 314.42271,328.25144 C 309.50604,322.62644 304.08938,320.37644 298.17271,320.00144 C 289.00604,323.79311 277.33938,323.33477 270.67271,319.00144 C 271.50604,313.83477 286.71438,315.41811 290.67271,316.12644 C 287.13104,314.00144 284.21438,313.87644 282.42271,312.50144 C 282.33938,311.29311 282.63104,311.45977 283.04771,311.12644 C 285.21438,311.20977 288.88104,311.16811 291.67271,312.50144 C 289.67271,307.75144 285.67271,302.75144 285.67271,298.25144 C 296.71438,298.50144 304.50604,303.75144 299.67271,316.25144 C 304.29771,317.25144 308.79771,320.12644 313.17271,323.00144 C 310.88104,318.04311 309.33938,313.08477 311.17271,308.50144 C 320.63104,311.75144 329.21438,319.12644 322.04771,330.12644 C 326.83938,333.29311 330.50604,335.70977 333.67271,342.00144 C 334.21437,334.25144 336.00604,329.62644 339.42271,325.50144 C 347.25604,331.25144 350.96437,345.37644 339.67271,350.25144 C 340.79771,353.79311 342.17271,357.45977 342.04771,361.25144 C 344.13104,356.50144 346.08937,351.50144 348.92271,349.25144 C 355.25604,353.79311 351.83937,364.33477 344.67271,370.00144 C 344.58937,374.58477 344.50604,379.16811 344.42271,383.75144 z "
         id="path6058"
         sodipodi:nodetypes="ccccccccccccccccccccccccccccc" />
    </g>
  </g>
</svg>
